<svg width="159" height="159" viewBox="0 0 159 159" fill="none" xmlns="http://www.w3.org/2000/svg">
<circle cx="79.5" cy="79.5" r="79.5" fill="#D9D9D9" fill-opacity="0.2"/>
<circle cx="79.5" cy="79.5" r="62.5" fill="url(#paint0_linear_1073_341)" stroke="#CDCDCD" stroke-width="2"/>
<path d="M71.4505 91.0603V89.8872C71.4505 86.6445 71.7175 84.0599 72.2516 82.1333C72.8048 80.2068 73.6059 78.6617 74.655 77.4982C75.7041 76.3155 76.9821 75.2378 78.489 74.265C79.6907 73.502 80.7589 72.7295 81.6936 71.9474C82.6473 71.1463 83.4008 70.2879 83.9539 69.3724C84.5071 68.4568 84.7837 67.4172 84.7837 66.2537C84.7837 65.1282 84.5166 64.1364 83.9825 63.278C83.4485 62.4196 82.7141 61.7616 81.7794 61.3038C80.8638 60.8269 79.8433 60.5885 78.7179 60.5885C77.5925 60.5885 76.5339 60.846 75.542 61.361C74.5692 61.876 73.7681 62.6104 73.1386 63.5641C72.5282 64.4988 72.2135 65.6337 72.1944 66.969H59.0329C59.0901 62.9633 60.0152 59.6824 61.8082 57.1264C63.6203 54.5704 66.0142 52.682 68.9899 51.4612C71.9655 50.2214 75.2463 49.6015 78.8324 49.6015C82.7618 49.6015 86.2524 50.2118 89.3044 51.4326C92.3754 52.6534 94.7884 54.456 96.5432 56.8403C98.2981 59.2246 99.1755 62.1431 99.1755 65.5956C99.1755 67.8655 98.794 69.8683 98.031 71.6041C97.2681 73.3399 96.1999 74.8754 94.8265 76.2106C93.4722 77.5268 91.8795 78.7285 90.0483 79.8157C88.6177 80.655 87.4255 81.5325 86.4718 82.4481C85.5371 83.3636 84.8314 84.4127 84.3545 85.5954C83.8776 86.7589 83.6392 88.1895 83.6392 89.8872V91.0603H71.4505ZM77.7737 109.83C75.7137 109.83 73.9493 109.105 72.4805 107.655C71.0308 106.206 70.3155 104.451 70.3346 102.391C70.3155 100.369 71.0308 98.6425 72.4805 97.2119C73.9493 95.7622 75.7137 95.0373 77.7737 95.0373C79.7384 95.0373 81.4647 95.7622 82.9525 97.2119C84.4403 98.6425 85.1938 100.369 85.2129 102.391C85.1938 103.764 84.8314 105.013 84.1256 106.139C83.4389 107.264 82.5329 108.161 81.4075 108.828C80.3011 109.496 79.0899 109.83 77.7737 109.83Z" fill="white"/>
<defs>
<linearGradient id="paint0_linear_1073_341" x1="16" y1="80" x2="143" y2="80" gradientUnits="userSpaceOnUse">
<stop stop-color="#707078"/>
<stop offset="1" stop-color="#1D2021"/>
</linearGradient>
</defs>
</svg>
