<svg width="562" height="521" viewBox="0 0 562 521" fill="none" xmlns="http://www.w3.org/2000/svg">
<path d="M97.9478 151.052L100.103 155.422L104.924 156.122L101.436 159.523L102.26 164.324L97.9478 162.056L93.6358 164.324L94.4592 159.523L90.9707 156.122L95.792 155.422L97.9478 151.052Z" fill="#E7E8E5"/>
<path d="M529.48 356.701L531.637 361.069L536.457 361.77L532.969 365.169L533.793 369.972L529.48 367.705L525.168 369.972L525.992 365.169L522.504 361.77L527.324 361.069L529.48 356.701Z" fill="#F3F2F1"/>
<path d="M444.007 483.477L446.163 487.845L450.983 488.546L447.495 491.946L448.319 496.748L444.007 494.481L439.695 496.748L440.517 491.946L437.029 488.546L441.851 487.845L444.007 483.477Z" fill="#F3F2F1"/>
<path d="M248.468 73.5964L249.269 75.2177L251.059 75.4777C251.505 75.5431 251.684 76.0911 251.36 76.4057L250.065 77.6684L250.371 79.4497C250.448 79.8951 249.98 80.2338 249.581 80.0244L247.98 79.1831L246.38 80.0244C245.98 80.2338 245.513 79.8951 245.589 79.4497L245.895 77.6684L244.6 76.4057C244.277 76.0911 244.456 75.5431 244.903 75.4777L246.692 75.2177L247.492 73.5964C247.692 73.1911 248.268 73.1911 248.468 73.5964Z" fill="#E7E8E5"/>
<path d="M28.244 462.733L29.0445 464.355L30.8341 464.615C31.2811 464.68 31.4587 465.228 31.1363 465.544L29.8409 466.806L30.1467 468.588C30.2227 469.033 29.756 469.373 29.3565 469.161L27.7555 468.321L26.1549 469.161C25.7555 469.373 25.2888 469.033 25.3648 468.588L25.6705 466.806L24.3759 465.544C24.0529 465.228 24.2311 464.68 24.6773 464.615L26.4675 464.355L27.2675 462.733C27.4675 462.328 28.0445 462.328 28.244 462.733Z" fill="#F3F2F1"/>
<path d="M64.2149 56.4569L65.0155 58.0782L66.8051 58.3382C67.2515 58.4035 67.4296 58.9529 67.1067 59.2675L65.8119 60.5302L66.1176 62.3129C66.1936 62.7569 65.7269 63.0969 65.3275 62.8862L63.7264 62.0449L62.126 62.8862C61.7264 63.0969 61.2597 62.7569 61.3359 62.3129L61.6416 60.5302L60.3468 59.2675C60.0233 58.9529 60.202 58.4035 60.6483 58.3382L62.4379 58.0782L63.2384 56.4569C63.4379 56.0529 64.0155 56.0529 64.2149 56.4569Z" fill="#E7E8E5"/>
<path d="M62.0488 377.816C62.0488 378.792 61.2567 379.585 60.2791 379.585C59.302 379.585 58.5098 378.792 58.5098 377.816C58.5098 376.837 59.302 376.046 60.2791 376.046C61.2567 376.046 62.0488 376.837 62.0488 377.816Z" fill="#E7E8E5"/>
<path d="M314.77 155.916C314.77 156.892 313.978 157.686 313.001 157.686C312.024 157.686 311.23 156.892 311.23 155.916C311.23 154.939 312.024 154.146 313.001 154.146C313.978 154.146 314.77 154.939 314.77 155.916Z" fill="#E7E8E5"/>
<path d="M222.817 57.924C222.817 58.9014 222.024 59.6934 221.047 59.6934C220.069 59.6934 219.277 58.9014 219.277 57.924C219.277 56.9467 220.069 56.1547 221.047 56.1547C222.024 56.1547 222.817 56.9467 222.817 57.924Z" fill="#F3F2F1"/>
<path d="M233.195 480.558C233.195 475.149 228.808 470.762 223.398 470.762C217.987 470.762 213.602 475.149 213.602 480.558C213.602 485.97 217.987 490.355 223.398 490.355C228.808 490.355 233.195 485.97 233.195 480.558Z" fill="#EDEDEB"/>
<path d="M220.005 474.842C217.925 474.842 215.992 475.509 214.419 476.657C213.899 477.855 213.605 479.175 213.605 480.562C213.605 485.976 217.992 490.349 223.405 490.349C225.232 490.349 226.952 489.842 228.419 488.962V488.949C229.152 487.59 229.565 486.043 229.565 484.389C229.565 479.122 225.285 474.842 220.005 474.842Z" fill="#E2E2E0"/>
<path d="M144.115 275.693V225.244L101.241 275.693H144.115ZM144.115 310.249H62.9746V273.616L144.115 177.166H182.935V275.693H203.056V310.249H182.935V340.213H144.115V310.249Z" fill="#406FBF"/>
<path d="M261.122 259.509C261.122 279.923 262.926 293.865 266.535 301.337C270.145 308.811 275.374 312.547 282.226 312.547C286.746 312.547 290.665 310.961 293.982 307.789C297.299 304.617 299.741 299.607 301.31 292.753C302.877 285.901 303.661 275.22 303.661 260.713C303.661 239.427 301.855 225.119 298.247 217.792C294.638 210.465 289.226 206.801 282.009 206.801C274.645 206.801 269.323 210.54 266.042 218.011C262.762 225.485 261.122 239.317 261.122 259.509ZM216.943 259.4C216.943 228.929 222.427 207.605 233.401 195.431C244.373 183.255 261.085 177.167 283.539 177.167C294.329 177.167 303.186 178.499 310.113 181.159C317.038 183.821 322.689 187.281 327.062 191.548C331.435 195.812 334.881 200.296 337.395 204.997C339.911 209.7 341.934 215.185 343.465 221.456C346.453 233.413 347.947 245.879 347.947 258.855C347.947 287.941 343.027 309.229 333.186 322.717C323.343 336.204 306.394 342.945 282.337 342.945C268.849 342.945 257.95 340.795 249.641 336.493C241.329 332.193 234.511 325.887 229.191 317.576C225.326 311.671 222.319 303.597 220.17 293.355C218.018 283.112 216.943 271.795 216.943 259.4Z" fill="#406FBF"/>
<path d="M442.867 275.693V225.244L399.993 275.693H442.867ZM442.867 310.249H361.727V273.616L442.867 177.166H481.688V275.693H501.808V310.249H481.688V340.213H442.867V310.249Z" fill="#406FBF"/>
<path d="M212.657 123.368C211.283 123.368 210.17 122.255 210.17 120.88C210.17 119.507 211.283 118.393 212.657 118.393C214.03 118.393 215.143 119.507 215.143 120.88C215.143 122.255 214.03 123.368 212.657 123.368Z" fill="#B8D2EF"/>
<path d="M44.4966 216.66C43.5226 216.66 42.7324 215.869 42.7324 214.895C42.7324 213.921 43.5226 213.131 44.4966 213.131C45.4706 213.131 46.2606 213.921 46.2606 214.895C46.2606 215.869 45.4706 216.66 44.4966 216.66Z" fill="#B8D2EF"/>
<path d="M335.281 473.691C333.887 473.691 332.756 472.561 332.756 471.166C332.756 469.773 333.887 468.642 335.281 468.642C336.675 468.642 337.805 469.773 337.805 471.166C337.805 472.561 336.675 473.691 335.281 473.691Z" fill="#B8D2EF"/>
<path d="M395.873 371.154C394.899 371.154 394.109 370.364 394.109 369.389C394.109 368.416 394.899 367.625 395.873 367.625C396.848 367.625 397.637 368.416 397.637 369.389C397.637 370.364 396.848 371.154 395.873 371.154Z" fill="#B8D2EF"/>
<path d="M511.008 55.9785C510.033 55.9785 509.244 55.1892 509.244 54.2145C509.244 53.2399 510.033 52.4505 511.008 52.4505C511.981 52.4505 512.772 53.2399 512.772 54.2145C512.772 55.1892 511.981 55.9785 511.008 55.9785Z" fill="#B8D2EF"/>
<path d="M175.784 20.4385C174.809 20.4385 174.02 19.6478 174.02 18.6731C174.02 17.6998 174.809 16.9091 175.784 16.9091C176.757 16.9091 177.548 17.6998 177.548 18.6731C177.548 19.6478 176.757 20.4385 175.784 20.4385Z" fill="#B8D2EF"/>
<path d="M317.469 111.077C316.496 111.077 315.705 110.288 315.705 109.314C315.705 108.338 316.496 107.55 317.469 107.55C318.444 107.55 319.233 108.338 319.233 109.314C319.233 110.288 318.444 111.077 317.469 111.077Z" fill="#B8D2EF"/>
<path d="M164.733 81.8693C164.733 98.004 151.655 111.084 135.52 111.084C119.386 111.084 106.307 98.004 106.307 81.8693C106.307 65.736 119.386 52.6573 135.52 52.6573C151.655 52.6573 164.733 65.736 164.733 81.8693Z" fill="#406FBF"/>
<path d="M135.52 111.084C119.386 111.084 106.307 98.004 106.307 81.8693C106.307 65.736 119.386 52.6573 135.52 52.6573C151.655 52.6573 164.733 65.736 164.733 81.8693C164.733 93.8933 157.471 104.22 147.092 108.703V108.691C151.799 103.499 154.672 96.6133 154.672 89.048C154.672 72.9053 141.596 59.8293 125.453 59.8293C121.358 59.8293 117.471 60.676 113.932 62.1893C109.198 67.3813 106.311 74.2933 106.311 81.8733C106.311 98.0013 119.386 111.077 135.516 111.077C139.3 111.077 142.919 110.36 146.243 109.053C142.924 110.364 139.305 111.084 135.52 111.084ZM151.291 62.2133C149.815 62.2133 148.62 63.408 148.62 64.884C148.62 66.3587 149.815 67.5533 151.291 67.5533C152.765 67.5533 153.96 66.3587 153.96 64.884C153.96 63.408 152.765 62.2133 151.291 62.2133Z" fill="#B8D2EF"/>
<path d="M146.242 109.054C146.529 108.94 146.81 108.824 147.092 108.703V108.704C146.812 108.824 146.528 108.942 146.242 109.054Z" fill="#CFE0F4"/>
<path d="M135.516 111.077C119.386 111.077 106.311 98.0011 106.311 81.8731C106.311 74.2931 109.198 67.3812 113.931 62.1892C117.471 60.6758 121.357 59.8292 125.452 59.8292C141.596 59.8292 154.672 72.9052 154.672 89.0478C154.672 96.6132 151.799 103.498 147.092 108.69V108.703C146.811 108.824 146.529 108.94 146.243 109.053C142.919 110.36 139.3 111.077 135.516 111.077ZM128.89 90.5438C125.664 90.5438 123.049 93.1585 123.049 96.3838C123.049 99.6105 125.664 102.225 128.89 102.225C132.116 102.225 134.732 99.6105 134.732 96.3838C134.732 93.1585 132.116 90.5438 128.89 90.5438ZM144.249 79.5532C141.836 79.5532 139.879 81.5105 139.879 83.9252C139.879 86.3372 141.836 88.2945 144.249 88.2945C146.663 88.2945 148.62 86.3372 148.62 83.9252C148.62 81.5105 146.663 79.5532 144.249 79.5532ZM119.877 64.8838C118.403 64.8838 117.207 66.0785 117.207 67.5532C117.207 69.0292 118.403 70.2252 119.877 70.2252C121.352 70.2252 122.548 69.0292 122.548 67.5532C122.548 66.0785 121.352 64.8838 119.877 64.8838Z" fill="#9ABEE8"/>
<path d="M119.877 70.2256C118.403 70.2256 117.207 69.0296 117.207 67.5536C117.207 66.0789 118.403 64.8842 119.877 64.8842C121.352 64.8842 122.548 66.0789 122.548 67.5536C122.548 69.0296 121.352 70.2256 119.877 70.2256Z" fill="#85ADE0"/>
<path d="M151.29 67.5537C149.814 67.5537 148.619 66.359 148.619 64.8844C148.619 63.4084 149.814 62.2137 151.29 62.2137C152.764 62.2137 153.959 63.4084 153.959 64.8844C153.959 66.359 152.764 67.5537 151.29 67.5537Z" fill="#9ABEE8"/>
<path d="M144.25 88.2949C141.836 88.2949 139.879 86.3376 139.879 83.9256C139.879 81.5109 141.836 79.5536 144.25 79.5536C146.663 79.5536 148.62 81.5109 148.62 83.9256C148.62 86.3376 146.663 88.2949 144.25 88.2949Z" fill="#85ADE0"/>
<path d="M128.89 102.226C125.664 102.226 123.049 99.6109 123.049 96.3842C123.049 93.1589 125.664 90.5442 128.89 90.5442C132.117 90.5442 134.732 93.1589 134.732 96.3842C134.732 99.6109 132.117 102.226 128.89 102.226Z" fill="#85ADE0"/>
<path d="M482.439 428.388C482.439 442.546 470.962 454.022 456.805 454.022C442.647 454.022 431.17 442.546 431.17 428.388C431.17 414.23 442.647 402.755 456.805 402.755C470.962 402.755 482.439 414.23 482.439 428.388Z" fill="#406FBF"/>
<path d="M449.415 452.941C438.861 449.77 431.17 439.977 431.17 428.388C431.17 414.23 442.647 402.755 456.805 402.755C463.479 402.755 469.558 405.306 474.119 409.485C473.751 409.149 473.373 408.823 472.986 408.508C470.654 407.801 468.169 407.427 465.601 407.427C451.442 407.427 439.963 418.906 439.963 433.064C439.963 441.088 443.642 448.236 449.415 452.941ZM464.462 452.859C474.879 449.601 482.438 439.876 482.438 428.385C482.438 427.808 482.419 427.235 482.382 426.665C482.419 427.235 482.439 427.81 482.439 428.388C482.439 439.879 474.879 449.603 464.462 452.859Z" fill="#6D97D6"/>
<path d="M456.801 454.024C454.233 454.024 451.749 453.649 449.416 452.942C451.756 453.646 454.236 454.023 456.805 454.023C459.472 454.023 462.044 453.615 464.463 452.859C462.044 453.616 459.469 454.024 456.801 454.024ZM482.383 426.666C481.932 419.876 478.839 413.81 474.12 409.485C478.843 413.803 481.933 419.873 482.383 426.666Z" fill="#A3C3EA"/>
<path d="M456.804 454.022C454.235 454.022 451.755 453.645 449.415 452.941C443.642 448.236 439.963 441.088 439.963 433.064C439.963 418.905 451.442 407.427 465.6 407.427C468.168 407.427 470.654 407.801 472.986 408.508C473.372 408.822 473.751 409.149 474.119 409.485C478.838 413.809 481.931 419.876 482.382 426.665C482.419 427.234 482.438 427.808 482.438 428.385C482.438 439.876 474.879 449.601 464.462 452.858C462.043 453.615 459.471 454.022 456.804 454.022Z" fill="#5A84CC"/>
<path d="M432.315 435.986C404.936 448.87 425.36 458.798 463.931 444.937C499.643 432.102 513.22 415.91 481.332 420.929C482.979 427.739 438.251 445.167 432.315 435.986Z" fill="#406FBF"/>
<path d="M472.666 177.167H467.906C467.908 177.166 467.91 177.166 467.912 177.163H472.672C472.669 177.166 472.668 177.166 472.666 177.167Z" fill="#C3C5C2"/>
<path d="M377.591 310.244H374.857C387.323 234.275 432.04 201.487 467.905 177.167H472.665C436.812 201.393 390.403 233.341 377.591 310.244Z" fill="#3563B7"/>
<path d="M287.234 417.745C264.607 417.746 242.155 407.529 231.253 390.829C224.515 380.51 216.691 358.896 239.993 330.058L242.067 331.736C225.583 352.134 222.535 372.604 233.485 389.372C246.81 409.782 278.279 420.046 305.125 412.743C332.629 405.258 349.327 381.333 350.939 347.105C356.453 230.029 418.653 193.965 464.069 167.632C492.285 151.272 512.671 139.45 508.19 114.514C507.569 111.056 506.189 108.665 503.973 107.206C498.169 103.381 486.835 106.025 473.714 109.084C447.973 115.08 412.719 123.293 391.718 87.5717L394.017 86.2197C414.025 120.252 446.785 112.62 473.109 106.486C486.829 103.29 498.678 100.53 505.438 104.978C508.298 106.861 510.057 109.826 510.814 114.044C515.626 140.82 493.465 153.669 465.406 169.94C420.521 195.964 359.049 231.608 353.603 347.229C351.933 382.69 334.519 407.506 305.825 415.316C299.778 416.961 293.497 417.744 287.234 417.745Z" fill="#406FBF"/>
<path d="M287.234 417.745C282.338 417.745 277.45 417.268 272.686 416.349C272.574 416.326 272.463 416.305 272.352 416.284C255.23 412.904 239.74 403.832 231.252 390.829C230.999 390.444 230.746 390.042 230.492 389.624C231.011 388.741 231.522 387.853 232.022 386.962C232.478 387.773 232.966 388.577 233.484 389.372C243.906 405.334 265.427 415.092 287.152 415.092C293.207 415.092 299.274 414.334 305.124 412.743C332.628 405.258 349.327 381.333 350.939 347.105C356.452 230.029 418.652 193.965 464.068 167.632C489.652 152.797 508.8 141.694 508.808 121.164C508.81 119.052 508.608 116.84 508.19 114.514C507.568 111.056 506.188 108.665 503.972 107.206C501.915 105.85 499.163 105.308 495.884 105.308C489.909 105.308 482.186 107.109 473.714 109.084C463.118 111.552 450.906 114.396 438.744 114.396C423.542 114.397 408.416 109.957 396.595 94.7863C397.134 93.9143 397.606 93.0437 397.971 92.2024C409.247 107.336 423.684 111.812 438.527 111.812C450.252 111.812 462.228 109.021 473.108 106.486C481.692 104.486 489.543 102.658 495.874 102.658C499.663 102.658 502.907 103.313 505.438 104.978C508.298 106.861 510.056 109.826 510.814 114.044C511.26 116.528 511.475 118.892 511.474 121.15C511.463 143.233 490.86 155.178 465.406 169.94C461.411 172.254 457.282 174.649 453.076 177.166C445.73 181.565 438.139 186.346 430.575 191.777C408.914 207.328 387.487 228.189 372.695 260.578C368.44 269.894 364.731 280.174 361.726 291.545C357.45 307.734 354.595 326.15 353.603 347.229C351.932 382.69 334.519 407.506 305.824 415.316C300.259 416.83 294.496 417.613 288.731 417.73C288.619 417.732 288.508 417.734 288.398 417.736C288.01 417.743 287.622 417.745 287.234 417.745Z" fill="#5D87CD"/>
<path d="M364.219 55.9894C373.36 55.8228 382.329 58.8348 382.329 58.8348C382.329 58.8348 396.948 83.8614 398.732 89.5894C398.117 95.2428 388.577 104.511 388.577 104.511L364.219 55.9894Z" fill="#406FBF"/>
<path d="M393.817 98.6816C393.412 98.1376 392.987 97.5896 392.541 97.039C392.648 96.9776 392.755 96.9176 392.86 96.8563C392.864 96.7923 392.867 96.7283 392.867 96.667C392.864 95.415 391.956 94.7523 391.956 94.7523C391.956 94.7523 391.921 94.7696 391.856 94.8043C391.349 91.107 388.976 84.4763 385.784 76.683C385.787 76.6856 385.789 76.687 385.792 76.6896C385.253 75.375 384.692 74.0323 384.113 72.6643C385.952 73.707 387.747 74.7563 389.435 75.8083C390.805 76.591 392.384 78.0163 394 79.6603C396.288 83.975 398.161 87.763 398.731 89.5896C398.643 90.399 398.371 91.283 397.971 92.203C397.605 93.0443 397.133 93.915 396.595 94.787C395.773 96.1163 394.799 97.4483 393.817 98.6816Z" fill="#6D97D6"/>
<path d="M407.66 177.567C402.147 170.569 396.731 163.441 392.248 155.719C391.128 153.789 390.067 151.827 389.063 149.832C388.492 148.701 387.94 147.559 387.404 146.409C386.936 145.407 385.903 143.928 385.799 142.831C384.197 125.936 389.981 113.497 384.428 99.9359L362.467 108.519C362.467 108.519 364.335 132.681 368.599 147.136C371.244 156.104 377.231 163.868 383.003 171.052C384.808 173.3 386.547 175.6 388.349 177.851C390.055 179.981 391.964 181.936 393.675 184.055C396.271 187.273 397.135 190.344 395.161 194.137C395.056 194.34 394.945 194.541 394.832 194.741C394.272 195.729 396.895 196.849 398.54 194.768C401.263 191.328 400.835 191.54 403.156 188.605C404.565 186.824 406.184 184.899 407.581 183.227C408.945 181.597 408.976 179.236 407.66 177.567Z" fill="#406FBF"/>
<path d="M396.286 195.944C395.431 195.944 394.755 195.504 394.755 195.02C394.755 194.928 394.78 194.835 394.832 194.742C394.946 194.542 395.056 194.34 395.162 194.138C395.902 192.715 396.243 191.394 396.243 190.13C396.243 188.02 395.298 186.067 393.675 184.055C391.964 181.936 390.055 179.982 388.35 177.851C386.547 175.6 384.808 173.3 383.003 171.052C377.231 163.868 371.244 156.104 368.599 147.136C364.842 134.4 362.946 114.127 362.547 109.487C362.726 109.682 362.867 109.812 362.867 109.812C362.867 109.812 366.839 108.451 372.235 106.338C373.912 109.27 379.615 119.112 385.862 128.484C385.659 131.05 385.508 133.699 385.508 136.462C385.507 138.518 385.591 140.638 385.799 142.831C385.903 143.928 386.936 145.407 387.404 146.41C387.94 147.559 388.492 148.702 389.063 149.832C390.067 151.827 391.128 153.79 392.248 155.719C395.259 160.906 398.69 165.823 402.29 170.615C399.35 174.168 393.372 178.778 390.738 180.646C391.311 181.283 391.879 181.936 392.448 182.588C397.87 179.047 402.156 174.454 403.784 172.584C405.063 174.258 406.359 175.916 407.66 177.567C408.303 178.383 408.624 179.362 408.627 180.342C408.627 180.456 408.623 180.572 408.614 180.687C408.692 179.596 408.372 178.482 407.655 177.57L407.5 177.376C406.575 178.34 405.923 179.878 405.814 181.603C405.726 182.794 405.927 183.884 406.318 184.736C406.36 184.687 406.402 184.638 406.444 184.588C405.35 185.899 404.196 187.291 403.156 188.606C400.835 191.54 401.263 191.328 398.54 194.768C397.858 195.631 397.008 195.944 396.286 195.944Z" fill="#B8D2EF"/>
<path d="M403.786 172.584C403.284 171.931 402.786 171.273 402.291 170.615C402.291 170.615 402.291 170.615 402.291 170.613C402.79 171.275 403.287 171.936 403.788 172.581C403.787 172.583 403.786 172.584 403.786 172.584Z" fill="#B8D2EF"/>
<path d="M392.449 182.588C391.88 181.936 391.312 181.283 390.738 180.645C393.373 178.777 399.35 174.168 402.29 170.615C402.785 171.273 403.284 171.931 403.785 172.584C402.157 174.453 397.87 179.047 392.449 182.588Z" fill="#8DB2E2"/>
<path d="M406.445 184.588C406.835 184.121 407.216 183.665 407.583 183.227C408.203 182.487 408.547 181.596 408.615 180.687C408.549 181.596 408.207 182.488 407.584 183.229C407.216 183.665 406.841 184.124 406.445 184.588Z" fill="#B8D2EF"/>
<path d="M406.317 184.736C405.927 183.884 405.725 182.794 405.813 181.603C405.923 179.878 406.575 178.34 407.5 177.376L407.655 177.57C408.372 178.482 408.692 179.596 408.613 180.687C408.545 181.596 408.201 182.487 407.581 183.227C407.215 183.666 406.833 184.122 406.444 184.588C406.401 184.638 406.36 184.687 406.317 184.736Z" fill="#8DB2E2"/>
<path d="M358.998 71.9923C356.701 75.3323 353.993 78.6242 350.498 81.5829C348.762 83.0696 346.783 84.4136 344.609 85.5563C343.51 86.1163 342.358 86.6016 341.165 87.0016L340.265 87.2909L339.974 87.3816C339.763 87.4469 339.551 87.5029 339.338 87.5536C338.935 87.6456 338.531 87.7083 338.174 87.7363C336.73 87.8456 335.685 87.6403 334.822 87.4256C333.119 86.9616 331.982 86.3402 330.906 85.7402C329.845 85.1296 328.915 84.5016 328.034 83.8549C326.298 82.5336 324.727 81.2083 323.263 79.7909C320.315 76.9776 317.703 74.0589 315.277 70.8096C314.171 69.3296 314.474 67.2309 315.955 66.1256C317.098 65.2723 318.609 65.2576 319.746 65.9762L319.847 66.0416C322.994 68.0402 326.169 70.1456 329.266 72.0309C330.831 72.9549 332.359 73.8816 333.861 74.6029C334.599 74.9776 335.323 75.3176 335.977 75.5589C336.613 75.8069 337.247 75.9482 337.413 75.9162C337.482 75.9109 337.399 75.8176 336.909 75.8349C336.79 75.8403 336.622 75.8563 336.451 75.8936L336.161 75.9683L336.207 75.9349L336.647 75.7082C337.235 75.4109 337.798 75.0363 338.367 74.6589C339.509 73.8869 340.595 72.9056 341.703 71.8296C343.898 69.6509 346.01 66.9362 348.239 64.1162L348.27 64.0776C350.553 61.1869 354.747 60.6949 357.638 62.9789C360.406 65.1642 360.961 69.1229 358.998 71.9923Z" fill="#406FBF"/>
<path d="M337.388 87.7666C336.337 87.7666 335.52 87.5986 334.823 87.4253C333.12 86.9613 331.983 86.3399 330.907 85.7399C329.845 85.1292 328.916 84.5013 328.035 83.8546C326.299 82.5333 324.728 81.2079 323.264 79.7906C320.316 76.9773 317.704 74.0586 315.277 70.8092C315.039 70.4892 314.865 70.1399 314.756 69.7786C314.96 69.8839 315.175 69.9706 315.4 70.0319L321.872 67.9359L321.548 67.3919L321.557 67.3933C321.477 67.2719 321.405 67.1386 321.341 66.9946C323.996 68.6999 326.659 70.4426 329.267 72.0306C330.832 72.9546 332.36 73.8813 333.861 74.6026C334.6 74.9773 335.324 75.3173 335.977 75.5586C336.175 75.6359 336.372 75.7026 336.555 75.7573L336.648 75.7079C337.236 75.4106 337.799 75.0359 338.368 74.6586C339.509 73.8866 340.596 72.9053 341.704 71.8293C343.899 69.6506 346.011 66.9359 348.24 64.1159L348.271 64.0772C348.732 63.4932 349.272 63.0066 349.864 62.6213C348.433 63.7119 347.615 65.4106 347.616 67.1879C347.616 67.5719 347.655 67.9599 347.733 68.3452C348.537 72.2919 349.665 76.6586 351.029 81.1253C350.855 81.2786 350.677 81.4306 350.499 81.5826C348.763 83.0693 346.784 84.4133 344.609 85.5559C343.511 86.1159 342.359 86.6013 341.165 87.0013L340.265 87.2906L339.975 87.3813C339.764 87.4466 339.552 87.5026 339.339 87.5533C338.936 87.6453 338.532 87.7079 338.175 87.7359C337.899 87.7573 337.637 87.7666 337.388 87.7666ZM336.852 75.8372C337.071 75.8919 337.249 75.9199 337.353 75.9199C337.377 75.9199 337.397 75.9186 337.413 75.9159C337.427 75.9146 337.435 75.9106 337.435 75.9039C337.436 75.8812 337.331 75.8319 337.023 75.8319C336.988 75.8319 336.951 75.8319 336.909 75.8346C336.892 75.8346 336.872 75.8359 336.852 75.8372Z" fill="#B8D2EF"/>
<path d="M310.255 63.2775L311.818 65.8989C311.818 65.8989 313.011 69.3869 315.399 70.0322L321.871 67.9362L321.547 67.3922L321.556 67.3936C320.727 66.1309 320.816 63.6962 321.107 61.6709C321.399 59.6469 320.348 59.5735 319.572 60.0775C319.123 60.3682 318.807 61.2922 318.443 62.2882C318.124 61.8495 317.783 61.4269 317.398 61.0442L315.42 59.0735C314.567 58.2255 313.2 58.1855 312.3 58.9869L310.698 60.4109C309.882 61.1362 309.695 62.3389 310.255 63.2775Z" fill="#406FBF"/>
<path d="M315.399 70.0322C313.011 69.3869 311.818 65.8989 311.818 65.8989L310.255 63.2775C310.039 62.9149 309.934 62.5122 309.934 62.1135C309.934 61.4802 310.198 60.8562 310.698 60.4109L312.3 58.9869C312.734 58.6015 313.274 58.4109 313.814 58.4109C314.396 58.4109 314.978 58.6335 315.42 59.0735L317.398 61.0442C317.783 61.4269 318.124 61.8495 318.443 62.2882C318.807 61.2922 319.123 60.3682 319.572 60.0775C319.818 59.9175 320.091 59.8162 320.342 59.8162C320.787 59.8162 321.156 60.1402 321.158 61.0362C321.158 61.2229 321.142 61.4335 321.107 61.6709C320.987 62.5095 320.9 63.4189 320.9 64.2855C320.899 65.5109 321.07 66.6536 321.556 67.3936L321.547 67.3922L321.871 67.9362L315.399 70.0322Z" fill="#B8D2EF"/>
<path d="M370.774 53.6896C364.575 55.1936 356.059 58.7296 350.309 62.3136C348.27 63.5829 347.253 65.9936 347.733 68.3456C350.298 80.9322 356.151 97.7922 362.47 108.518L391.953 96.3229C392.155 91.1216 384.998 74.2949 377.707 58.0323C376.397 55.1083 373.889 52.9336 370.774 53.6896Z" fill="#406FBF"/>
<path d="M362.093 107.868C357.894 100.559 353.927 90.6175 351.029 81.1255C349.665 76.6588 348.537 72.2921 347.733 68.3455C347.654 67.9601 347.615 67.5722 347.615 67.1882C347.614 65.2322 348.605 63.3748 350.309 62.3135C350.623 62.1175 350.947 61.9202 351.278 61.7255C351.346 61.8055 351.413 61.8868 351.477 61.9642C357.406 61.8108 362.438 60.4335 366.15 58.5721C366.149 58.6321 366.149 58.6935 366.149 58.7535C366.149 61.0962 367.386 63.3695 369.582 64.5882L369.606 64.6028L378.183 69.3628C380.231 72.0562 383.374 74.8375 385.785 76.6828C388.977 84.4761 391.35 91.1068 391.857 94.8041C390.583 95.4615 377.337 102.249 362.093 107.868ZM358.585 92.3775C358.717 92.3855 358.847 92.3895 358.974 92.3895C359.413 92.3895 359.823 92.3388 360.21 92.2441C360.21 92.2441 373.223 87.3935 377.162 85.6161C374.51 80.1241 370.19 68.1322 370.19 68.1322L368.565 68.2655C364.367 68.5455 355.217 71.9922 351.965 74.4588C352.522 78.8015 355.778 88.0308 358.585 92.3775Z" fill="#CFE0F5"/>
<path d="M385.792 76.6895C385.789 76.6868 385.787 76.6854 385.784 76.6828C385.247 75.3721 384.688 74.0308 384.109 72.6628C384.111 72.6628 384.112 72.6641 384.113 72.6641C384.692 74.0321 385.253 75.3748 385.792 76.6895Z" fill="#5E89CF"/>
<path d="M385.785 76.6826C383.374 74.8373 380.232 72.056 378.184 69.3626L379.69 70.2C381.169 71.0146 382.653 71.836 384.11 72.6626C384.689 74.0306 385.248 75.372 385.785 76.6826Z" fill="#9CBEE7"/>
<path d="M368.831 40.4839C366.397 35.8425 361.132 33.5052 354.81 34.0332C349.478 34.4785 344.751 39.9212 345.311 42.8625C345.871 45.8039 350.357 47.0478 351.171 48.0705L347.473 50.7505C345.633 52.0852 345.274 54.6799 346.679 56.4665C348.235 58.4439 350.284 60.5065 351.476 61.9639C361.695 61.6985 369.252 57.8012 371.976 54.0505C370.996 49.2772 371.251 45.0999 368.831 40.4839Z" fill="#406FBF"/>
<path d="M351.476 61.9639C350.284 60.5065 348.235 58.4439 346.679 56.4665C346.1 55.7305 345.82 54.8572 345.82 53.9905C345.822 52.7559 346.391 51.5345 347.474 50.7505L351.171 48.0705C350.358 47.0478 345.871 45.8039 345.311 42.8625C345.28 42.7012 345.266 42.5332 345.266 42.3585C345.27 39.3412 349.77 34.4532 354.81 34.0332C355.396 33.9839 355.975 33.9599 356.543 33.9599C362.086 33.9599 366.624 36.2745 368.831 40.4839C370.934 44.4932 371.018 48.1732 371.646 52.1999C369.74 52.5412 367.998 53.7012 366.987 55.5225C366.448 56.4919 366.178 57.5358 366.15 58.5718C362.438 60.4332 357.406 61.8105 351.476 61.9639Z" fill="#CFE0F5"/>
<path d="M363.822 43.3574C365.853 48.5507 363.287 54.4081 358.094 56.4387C352.899 58.4681 347.043 55.9027 345.014 50.7094C342.983 45.5147 345.549 39.6587 350.742 37.6294C355.937 35.6001 361.793 38.1627 363.822 43.3574Z" fill="#17282F"/>
<path d="M450.393 163.519C450.244 159.133 450.054 159.572 449.928 155.832C449.852 153.561 449.841 151.048 449.826 148.869C449.812 146.743 448.309 144.923 446.226 144.5C444.458 144.141 442.686 143.8 440.924 143.425C438.622 142.935 436.348 142.405 434.086 141.749C432.334 141.24 430.598 140.679 428.881 140.059C427.042 139.396 425.226 138.671 423.429 137.9C421.328 136.999 419.252 136.039 417.192 135.049C414.89 133.945 412.609 132.805 410.334 131.649C401.558 117.121 401.37 107.551 391.953 96.3227L371.738 105.465C371.738 105.465 386.592 131.819 396.705 142.992C402.528 149.423 411.664 152.321 419.809 154.425C425.686 155.943 431.646 157.104 437.613 158.2C439.933 158.625 442.456 158.791 444.45 160.175C446.022 161.267 446.836 162.968 447.301 164.777C447.396 165.147 447.476 165.52 447.546 165.895C447.758 167.012 450.484 166.169 450.393 163.519Z" fill="#406FBF"/>
<path d="M448.23 166.376C447.879 166.376 447.608 166.217 447.547 165.895C447.476 165.52 447.396 165.147 447.302 164.777C446.836 162.968 446.023 161.267 444.451 160.175C442.456 158.791 439.934 158.625 437.614 158.2C437.536 158.185 437.459 158.172 437.382 158.157C439.72 151.831 440.088 145.135 440.143 143.257C439.347 143.083 438.539 142.904 437.734 142.715C437.796 147.317 435.638 155.271 434.846 157.679C435.439 157.791 436.04 157.907 436.638 158.02C430.996 156.976 425.366 155.859 419.81 154.425C411.664 152.321 402.528 149.423 396.706 142.992C387.686 133.027 374.896 110.988 372.236 106.337C378.415 103.917 386.462 100.512 392.543 97.0386C401.382 107.96 401.747 117.432 410.335 131.649C412.61 132.805 414.891 133.945 417.192 135.049C419.252 136.039 421.328 136.999 423.43 137.9C425.227 138.671 427.043 139.396 428.882 140.059C430.599 140.679 432.335 141.24 434.087 141.749C436.348 142.405 438.623 142.935 440.924 143.425C442.286 143.715 443.651 143.984 445.018 144.257C444.998 144.253 444.978 144.251 444.958 144.247C445.047 145.5 445.826 146.955 447.128 148.109C447.982 148.879 448.946 149.391 449.832 149.632C449.846 151.621 449.86 153.823 449.928 155.832C450.055 159.572 450.244 159.133 450.394 163.519C450.395 163.563 450.396 163.607 450.396 163.649C450.394 165.451 449.076 166.376 448.23 166.376ZM449.831 149.437C449.826 149.244 449.824 149.056 449.823 148.869C449.818 148.015 449.574 147.211 449.148 146.527C449.575 147.211 449.822 148.015 449.827 148.869C449.828 149.056 449.83 149.245 449.831 149.437Z" fill="#CFE0F5"/>
<path d="M437.381 158.161C437.133 158.114 436.885 158.066 436.637 158.02C436.885 158.065 437.133 158.112 437.381 158.157C437.381 158.158 437.381 158.16 437.381 158.161Z" fill="#B8D2EF"/>
<path d="M437.382 158.157C437.134 158.112 436.886 158.065 436.638 158.02C436.04 157.907 435.439 157.791 434.846 157.679C435.638 155.271 437.796 147.317 437.734 142.715C438.539 142.904 439.347 143.083 440.143 143.257C440.088 145.135 439.72 151.831 437.382 158.157Z" fill="#9CBEE7"/>
<path d="M449.838 149.633C449.835 149.633 449.834 149.631 449.832 149.631C449.831 149.566 449.831 149.501 449.831 149.437C449.832 149.501 449.835 149.566 449.838 149.633ZM449.148 146.526C448.512 145.506 447.474 144.753 446.227 144.499C445.823 144.418 445.42 144.337 445.018 144.257C445.42 144.327 445.832 144.413 446.231 144.494C447.478 144.75 448.514 145.505 449.148 146.526Z" fill="#B8D2EF"/>
<path d="M449.832 149.632C448.945 149.391 447.981 148.878 447.128 148.109C445.825 146.954 445.046 145.5 444.957 144.246C444.977 144.25 444.997 144.253 445.017 144.257C445.42 144.337 445.822 144.419 446.226 144.5C447.473 144.753 448.512 145.506 449.148 146.526C449.573 147.21 449.817 148.015 449.822 148.869C449.824 149.056 449.825 149.244 449.83 149.437C449.83 149.501 449.83 149.567 449.832 149.632Z" fill="#9CBEE7"/>
<path d="M361.935 43.4443C362.475 45.4656 360.213 47.5909 358.402 45.8416C356.934 44.4229 354.719 42.0483 352.913 40.9189C351.058 39.7576 353.531 37.7349 356.447 38.5203C359.169 39.2523 361.395 41.4216 361.935 43.4443Z" fill="white"/>
<path d="M362.09 107.869C361.15 108.214 362.867 109.812 362.867 109.812C362.867 109.812 381.494 103.428 392.861 96.8555C392.957 95.4822 391.957 94.7515 391.957 94.7515C391.957 94.7515 378.127 101.957 362.09 107.869Z" fill="#406FBF"/>
<path d="M362.867 109.812C362.867 109.812 361.809 108.828 361.809 108.237C361.809 108.076 361.887 107.944 362.09 107.869C378.127 101.957 391.957 94.7515 391.957 94.7515C391.957 94.7515 392.865 95.4142 392.867 96.6662C392.867 96.7275 392.865 96.7915 392.861 96.8555C392.755 96.9169 392.649 96.9768 392.542 97.0382C386.461 100.512 378.414 103.917 372.235 106.337C366.839 108.45 362.867 109.812 362.867 109.812Z" fill="#90B4E3"/>
<path d="M375.822 52.8061C379.5 54.6621 382.961 56.6301 386.418 58.8061C388.14 59.8901 389.853 61.0035 391.541 62.2048C393.242 63.3808 394.921 64.6235 396.606 66.0208L397.238 66.5381L398.026 67.2488C398.586 67.7435 398.996 68.1968 399.408 68.6502C399.84 69.1182 400.197 69.5702 400.546 70.0195C400.91 70.4702 401.256 70.9208 401.566 71.3635C402.886 73.1342 403.961 74.9342 405.014 76.7222C407.064 80.3435 408.838 83.9608 410.302 87.8528C410.956 89.5902 410.078 91.5261 408.341 92.1795C407.037 92.6701 405.62 92.2968 404.718 91.3448L404.652 91.2715C401.973 88.4355 399.404 85.4435 396.818 82.6622C394.289 79.8888 391.602 77.0448 389.436 75.8075C386.409 73.9208 383.038 72.0448 379.69 70.1995L369.606 64.6022L369.582 64.5875C366.362 62.8008 365.2 58.7422 366.988 55.5222C368.729 52.3835 372.644 51.2075 375.822 52.8061Z" fill="#406FBF"/>
<path d="M403.284 89.8027C401.091 87.4174 398.96 84.9667 396.818 82.6627C394.288 79.8894 391.602 77.0454 389.435 75.808C387.746 74.7547 385.95 73.7054 384.11 72.6627C382.652 71.8361 381.168 71.0147 379.69 70.2001L378.183 69.3627L369.606 64.6027L369.582 64.5881C367.386 63.3694 366.148 61.0961 366.148 58.7534C366.148 57.6587 366.418 56.5481 366.987 55.5227C368.204 53.3294 370.482 52.0947 372.828 52.0947C373.84 52.0947 374.864 52.3254 375.822 52.8067C379.499 54.6627 382.96 56.6307 386.418 58.8067C388.139 59.8907 389.852 61.004 391.54 62.2054C393.242 63.3814 394.92 64.6241 396.606 66.0214L397.238 66.5387L398.026 67.2494C398.586 67.744 398.995 68.1974 399.407 68.6507C399.839 69.1187 400.196 69.5707 400.546 70.0201C400.91 70.4707 401.255 70.9214 401.566 71.3641C402.886 73.1347 403.96 74.9347 405.014 76.7227C406.952 80.1481 408.644 83.5694 410.062 87.2241C409.886 87.0961 409.698 86.9867 409.498 86.8961L402.778 87.9534L403.012 88.5414L403.003 88.5387C403.166 88.8987 403.254 89.3294 403.284 89.8027Z" fill="#CFE0F5"/>
<path d="M413.519 94.3742L412.387 91.5395C412.387 91.5395 411.755 87.9076 409.497 86.8956L402.777 87.9529L403.012 88.5409L403.003 88.5382C403.624 89.9142 403.153 92.3049 402.549 94.2596C401.944 96.2129 402.971 96.4502 403.816 96.0742C404.304 95.8569 404.761 94.9942 405.277 94.0662C405.523 94.5502 405.793 95.0209 406.115 95.4609L407.759 97.7169C408.468 98.6889 409.812 98.9409 410.827 98.2916L412.632 97.1356C413.552 96.5462 413.925 95.3889 413.519 94.3742Z" fill="#406FBF"/>
<path d="M409.601 98.6523C408.895 98.6523 408.203 98.3257 407.759 97.7177L406.115 95.4617C405.794 95.0217 405.523 94.551 405.278 94.067C404.762 94.995 404.305 95.8577 403.817 96.075C403.605 96.1697 403.382 96.2257 403.175 96.2257C402.733 96.2257 402.369 95.967 402.367 95.2777C402.367 95.0083 402.422 94.6724 402.55 94.2604C402.954 92.9537 403.298 91.4537 403.297 90.1924C403.295 89.5644 403.21 88.9963 403.003 88.539L403.013 88.5417L402.778 87.9537L409.498 86.8964C411.755 87.9084 412.387 91.5403 412.387 91.5403L413.519 94.375C413.63 94.6523 413.683 94.9403 413.683 95.2243C413.681 95.9803 413.301 96.7084 412.633 97.1364L410.827 98.2924C410.447 98.535 410.022 98.6523 409.601 98.6523Z" fill="#CFE0F5"/>
<path d="M358.973 92.3896C358.847 92.3896 358.716 92.3856 358.584 92.3776C363.459 90.6963 371.597 87.527 375.536 85.7496C372.884 80.2576 370.092 72.6897 368.564 68.2657L370.189 68.1323C370.189 68.1323 374.509 80.1243 377.161 85.6163C373.223 87.3936 360.209 92.2443 360.209 92.2443C359.823 92.339 359.412 92.3896 358.973 92.3896Z" fill="#9CBEE7"/>
<path d="M351.965 74.4583C352.522 78.801 355.778 88.0303 358.585 92.377C363.459 90.6956 371.598 87.5263 375.537 85.749C372.885 80.257 370.093 72.689 368.565 68.265C364.368 68.545 355.217 71.9916 351.965 74.4583Z" fill="white"/>
<path d="M358.582 82.127C358.255 82.127 357.923 82.0803 357.594 81.9829C355.775 81.4389 354.742 79.5216 355.286 77.7016C355.732 76.211 357.098 75.2483 358.578 75.2483C358.904 75.2483 359.236 75.295 359.566 75.3936C361.386 75.939 362.419 77.8549 361.875 79.6736C361.428 81.1643 360.062 82.127 358.582 82.127Z" fill="#B8D2EF"/>
<path d="M363.346 75.8838C363.24 75.8838 363.13 75.8691 363.022 75.8358C362.426 75.6585 362.088 75.0305 362.266 74.4345C362.412 73.9451 362.86 73.6291 363.345 73.6291C363.452 73.6291 363.561 73.6451 363.669 73.6771C364.265 73.8558 364.604 74.4838 364.425 75.0798C364.28 75.5678 363.832 75.8838 363.346 75.8838Z" fill="#7DA6DD"/>
<path d="M366.324 74.7256C366.218 74.7256 366.108 74.7109 366 74.6776C365.404 74.4989 365.064 73.8722 365.243 73.2749C365.39 72.7869 365.838 72.4709 366.323 72.4709C366.43 72.4709 366.539 72.4869 366.646 72.5189C367.243 72.6976 367.582 73.3256 367.403 73.9216C367.256 74.4096 366.81 74.7256 366.324 74.7256Z" fill="#7DA6DD"/>
<path d="M359.267 89.1777L358.521 86.7537L370.85 81.8804L371.596 84.3057L359.267 89.1777Z" fill="#8EB5E4"/>
<path d="M282.338 342.949C278.956 342.949 275.74 342.815 272.686 342.544V342.54C275.74 342.811 278.958 342.945 282.336 342.945C284.41 342.945 286.43 342.896 288.398 342.796C286.434 342.899 284.416 342.949 282.338 342.949ZM272.352 342.513C268.76 342.183 265.398 341.663 262.26 340.956C265.398 341.661 268.762 342.18 272.352 342.511V342.513ZM250.556 336.955C250.25 336.805 249.944 336.652 249.644 336.496C249.564 336.455 249.484 336.413 249.404 336.371C249.483 336.412 249.562 336.453 249.64 336.493C249.942 336.651 250.247 336.804 250.556 336.955ZM292.763 308.861C293.176 308.527 293.582 308.169 293.978 307.789C297.192 304.717 299.583 299.919 301.159 293.395C299.586 299.921 297.194 304.717 293.982 307.789C293.584 308.169 293.178 308.527 292.763 308.861Z" fill="#C3C5C2"/>
<path d="M272.687 342.544C272.576 342.533 272.464 342.524 272.354 342.513V342.511C272.464 342.521 272.575 342.531 272.687 342.54V342.544Z" fill="#B1B3B1"/>
<path d="M288.398 342.796C288.51 342.789 288.621 342.784 288.732 342.779C288.621 342.784 288.509 342.791 288.398 342.796Z" fill="#B1B3B1"/>
<path d="M282.337 342.945C278.959 342.945 275.741 342.811 272.687 342.54C272.575 342.531 272.464 342.521 272.353 342.511C268.763 342.18 265.398 341.661 262.261 340.956C257.928 339.979 254.027 338.645 250.557 336.955C250.248 336.804 249.943 336.651 249.641 336.493C249.563 336.453 249.484 336.412 249.405 336.371C248.953 336.133 248.505 335.889 248.062 335.64L265.062 317.581C267.617 314.868 270.09 312.083 272.48 309.229C275.249 311.444 278.501 312.551 282.232 312.551C286.211 312.551 289.724 311.32 292.764 308.861C293.178 308.527 293.585 308.169 293.983 307.789C297.195 304.717 299.586 299.921 301.16 293.395C301.212 293.181 301.263 292.967 301.312 292.749C302.539 287.389 303.285 279.669 303.552 269.616L329.165 252.429L309.365 304.056C304.152 317.683 297.392 330.669 289.232 342.749C289.076 342.759 288.921 342.768 288.765 342.776C288.755 342.777 288.743 342.777 288.732 342.779C288.621 342.784 288.511 342.789 288.399 342.796C286.431 342.896 284.411 342.945 282.337 342.945Z" fill="#3563B7"/>
<path d="M125.061 340C132.523 347.463 148.396 363.336 148.396 363.336L213.743 301.779C191.256 293.231 147.42 317.64 125.061 340Z" fill="#17282F"/>
<path d="M206.438 421.38C198.975 413.916 183.102 398.044 183.102 398.044L244.659 332.696C253.207 355.183 228.798 399.018 206.438 421.38Z" fill="#17282F"/>
<path d="M295.739 274.323L321.195 225.244L272.117 250.699C256.349 258.877 241.791 269.201 228.858 281.376L145.195 360.136L186.302 401.244L265.062 317.581C277.238 304.648 287.562 290.089 295.739 274.323Z" fill="#406FBF"/>
<path d="M186.302 401.244L148.395 363.336L145.195 360.136L189.901 318.051L159.961 346.236L200.202 386.479L186.302 401.244Z" fill="#A4C3E9"/>
<path d="M203.615 382.854L231.22 353.53L192.908 315.218L228.858 281.376C241.791 269.202 256.348 258.878 272.116 250.699L321.195 225.244L303.656 259.059L295.739 274.323C293.555 278.535 291.216 282.662 288.731 286.694C288.62 286.872 288.508 287.052 288.398 287.232C283.616 294.93 278.299 302.28 272.479 309.23C270.09 312.083 267.616 314.868 265.062 317.582L248.062 335.64L248.06 335.642L203.615 382.854Z" fill="#A4C3E9"/>
<path d="M255.633 315.128C248.917 321.844 238.028 321.844 231.31 315.128C224.594 308.412 224.594 297.521 231.31 290.805C238.028 284.089 248.917 284.089 255.633 290.805C262.35 297.521 262.35 308.412 255.633 315.128Z" fill="white"/>
<path d="M251.283 310.778C246.968 315.092 239.973 315.092 235.66 310.778C231.345 306.464 231.345 299.47 235.66 295.156C239.973 290.842 246.968 290.842 251.283 295.156C255.596 299.47 255.596 306.464 251.283 310.778Z" fill="#406FBF"/>
<path d="M200.202 386.479L159.961 346.236L189.901 318.051L192.909 315.217L231.221 353.529L203.616 382.853L200.202 386.479Z" fill="#80A8DE"/>
<path d="M134.169 376.879C104.029 379.33 94.0441 398.619 90.6394 424.264C88.9035 437.342 88.1331 450.573 77.1509 458.23C74.103 460.355 75.6165 465.092 79.3306 464.976C119.782 463.713 138.65 443.904 141.02 435.61C140.204 440.854 139.014 444.991 137.697 448.243C136.342 451.585 140.013 454.679 143.069 452.766C154.425 445.651 168.668 432.558 169.614 411.328C161.217 399.527 134.169 376.879 134.169 376.879Z" fill="#406FBF"/>
<path d="M79.1971 464.978C76.9299 464.978 75.5179 463.151 75.5215 461.27C75.5242 460.151 76.0272 459.013 77.1507 458.23C88.133 450.573 88.9034 437.342 90.6392 424.264C94.0439 398.619 104.029 379.33 134.169 376.879C134.169 376.879 161.217 399.527 169.614 411.328C168.667 432.558 154.425 445.651 143.069 452.766C142.419 453.172 141.742 453.352 141.091 453.352C139.127 453.352 137.403 451.709 137.407 449.678C137.409 449.215 137.499 448.731 137.697 448.243C139.014 444.991 140.203 440.854 141.019 435.61C138.65 443.904 119.781 463.713 79.3304 464.976C79.2851 464.978 79.2414 464.978 79.1971 464.978Z" fill="#5D87CD"/>
<path d="M174.244 420.456L125.982 372.196L151.692 366.633L179.805 394.747L174.244 420.456Z" fill="#406FBF"/>
</svg>
