<svg width="59" height="57" viewBox="0 0 59 57" fill="none" xmlns="http://www.w3.org/2000/svg">
<ellipse cx="29.355" cy="28.5" rx="29.355" ry="28.5" fill="#2859C5"/>
<path d="M35.5945 7.46194C35.4998 7.46178 35.4048 7.46228 35.3105 7.46461C34.8799 7.47545 34.4533 7.51178 34.0319 7.57404C30.6606 8.07186 27.5299 10.2144 24.989 13.0331C22.448 15.8518 20.5117 19.3315 19.5143 22.3313C19.0154 23.8311 18.7544 25.2117 18.7458 26.2979C18.7375 27.3842 18.9936 28.1266 19.3527 28.4857L28.5102 37.646C28.8694 38.0052 29.6145 38.2613 30.7007 38.2528C31.6496 38.2454 32.823 38.0452 34.1046 37.6616C34.2105 36.1037 34.8924 34.6073 36.0111 33.5022C37.2319 32.2962 38.9192 31.6061 40.642 31.6061C41.6767 31.6061 42.6981 31.857 43.6138 32.317C43.7309 32.2154 43.8478 32.1134 43.9628 32.0097C46.7815 29.4687 48.9266 26.3381 49.4244 22.9668C49.9223 19.5955 48.8506 15.9182 44.9654 12.0331C41.6723 8.73962 38.5292 7.46944 35.5945 7.46194ZM19.9205 31.1763C19.9485 33.5775 18.82 35.5267 17.2482 37.1563C15.2846 39.192 12.6719 40.907 10.5156 42.9773C10.9499 44.4096 11.2063 45.1141 11.5469 45.4593C11.8878 45.8049 12.5759 46.0606 14.0134 46.483C16.0684 44.33 17.7173 41.654 19.7225 39.6488C20.7748 38.5964 21.9478 37.7237 23.3559 37.2811C24.0896 37.0506 24.8821 36.9497 25.7312 36.9869L19.9204 31.1761L19.9205 31.1763ZM40.642 33.1061C39.326 33.1061 37.9938 33.6533 37.066 34.5697C36.1382 35.4863 35.5888 36.7964 35.5892 38.0885C35.5897 39.3801 36.1384 40.6913 37.066 41.6073C37.9937 42.5231 39.3263 43.0683 40.642 43.0683C41.9576 43.0683 43.2903 42.5231 44.218 41.6073C45.1456 40.6913 45.6944 39.3801 45.6949 38.0885C45.6952 36.7964 45.1458 35.4863 44.218 34.5697C43.2902 33.6533 41.9581 33.1061 40.642 33.1061Z" fill="white"/>
</svg>
