<svg width="55" height="55" viewBox="0 0 55 55" fill="none" xmlns="http://www.w3.org/2000/svg">
<rect width="55" height="54.0517" rx="2.84483" fill="#2859C5"/>
<path d="M33.5945 7.46194C33.4998 7.46178 33.4048 7.46228 33.3105 7.46461C32.8799 7.47545 32.4533 7.51178 32.0319 7.57404C28.6606 8.07186 25.5299 10.2144 22.989 13.0331C20.448 15.8518 18.5117 19.3315 17.5143 22.3313C17.0154 23.8311 16.7544 25.2117 16.7458 26.2979C16.7375 27.3842 16.9936 28.1266 17.3527 28.4857L26.5102 37.646C26.8694 38.0052 27.6145 38.2613 28.7007 38.2528C29.6496 38.2454 30.823 38.0452 32.1046 37.6616C32.2105 36.1037 32.8924 34.6073 34.0111 33.5022C35.2319 32.2962 36.9192 31.6061 38.642 31.6061C39.6767 31.6061 40.6981 31.857 41.6138 32.317C41.7309 32.2154 41.8478 32.1134 41.9628 32.0097C44.7815 29.4687 46.9266 26.3381 47.4244 22.9668C47.9223 19.5955 46.8506 15.9182 42.9654 12.0331C39.6723 8.73962 36.5292 7.46944 33.5945 7.46194ZM17.9205 31.1763C17.9485 33.5775 16.82 35.5267 15.2482 37.1563C13.2846 39.192 10.6719 40.907 8.51562 42.9773C8.94985 44.4096 9.2063 45.1141 9.54693 45.4593C9.88781 45.8049 10.5759 46.0606 12.0134 46.483C14.0684 44.33 15.7173 41.654 17.7225 39.6488C18.7748 38.5964 19.9478 37.7237 21.3559 37.2811C22.0896 37.0506 22.8821 36.9497 23.7312 36.9869L17.9204 31.1761L17.9205 31.1763ZM38.642 33.1061C37.326 33.1061 35.9938 33.6533 35.066 34.5697C34.1382 35.4863 33.5888 36.7964 33.5892 38.0885C33.5897 39.3801 34.1384 40.6913 35.066 41.6073C35.9937 42.5231 37.3263 43.0683 38.642 43.0683C39.9576 43.0683 41.2903 42.5231 42.218 41.6073C43.1456 40.6913 43.6944 39.3801 43.6949 38.0885C43.6952 36.7964 43.1458 35.4863 42.218 34.5697C41.2902 33.6533 39.9581 33.1061 38.642 33.1061Z" fill="white"/>
</svg>
