<svg width="102" height="102" viewBox="0 0 102 102" fill="none" xmlns="http://www.w3.org/2000/svg">
<path d="M76.615 101.458H25.3046C23.2009 101.458 21.4563 99.7137 21.4563 97.61C21.4563 95.5063 23.2009 93.7617 25.3046 93.7617H76.615C78.7188 93.7617 80.4633 95.5063 80.4633 97.61C80.4633 99.7137 78.7188 101.458 76.615 101.458Z" fill="#F8BC2D"/>
<path d="M93.8049 16.894L73.2808 31.5688C70.5613 33.5185 66.6617 32.3384 65.4816 29.2085L55.7839 3.34801C54.142 -1.116 47.8308 -1.116 46.1888 3.34801L36.44 29.1572C35.2598 32.3384 31.4115 33.5185 28.6921 31.5174L8.1679 16.8427C4.06307 13.9693 -1.37584 18.0228 0.317406 22.7947L21.6626 82.5715C22.3809 84.624 24.3307 85.958 26.4857 85.958H75.3845C77.5395 85.958 79.4893 84.5726 80.2077 82.5715L101.553 22.7947C103.297 18.0228 97.8585 13.9693 93.8049 16.894ZM63.7883 64.2537H38.1332C36.0295 64.2537 34.2849 62.5092 34.2849 60.4054C34.2849 58.3017 36.0295 56.5571 38.1332 56.5571H63.7883C65.8921 56.5571 67.6366 58.3017 67.6366 60.4054C67.6366 62.5092 65.8921 64.2537 63.7883 64.2537Z" fill="#F8BC2D"/>
</svg>
