<svg width="308" height="289" viewBox="0 0 308 289" fill="none" xmlns="http://www.w3.org/2000/svg">
<path d="M233 9L156 36.5L115.5 176L156 169L127.5 278L166.5 220.5C149 178 161 202.5 157.5 193C154.7 185.4 157.667 184 160 184L188 180.5L226.5 114L182.5 121L233 9Z" fill="#77DFF8"/>
<path d="M231 58.5008C250.167 56.3341 291.3 63.2008 302.5 108.001L257.5 113C251 100.5 232.2 81.5 209 105.5" stroke="#4A40BF" strokeWidth="5"/>
<path d="M232.5 128C257.5 128.333 301.289 141.003 305 188.5C310 252.5 167.5 273 156 186.5L199 182.5C205.333 194.833 221.507 213.843 244.5 205C270.5 195 260 166.5 218 165.5" stroke="#4A40BF" strokeWidth="5"/>
<path d="M140 59.5H133L92.5 198L51 59.5H4L64 235H119.5L137.5 183.5" stroke="#4A40BF" strokeWidth="5"/>
<path d="M87.9492 31.0117C93.5519 31.4267 96.7159 38.1084 101.725 39.7782" stroke="white" strokeWidth="3" stroke-linecap="round"/>
<path d="M144.305 1.58203V19.7411" stroke="white" strokeWidth="3" stroke-linecap="round"/>
<path d="M164.969 268.959C162.455 274.316 160.146 279.896 157.002 284.926C156.477 285.767 156.202 286.159 156.202 287.118" stroke="white" strokeWidth="3" stroke-linecap="round"/>
<path d="M212.558 260.818C213.933 264.347 218.193 268.98 218.193 272.716" stroke="white" strokeWidth="3" stroke-linecap="round"/>
</svg>
