<svg width="43" height="43" viewBox="0 0 43 43" fill="none" xmlns="http://www.w3.org/2000/svg">
<g clip-path="url(#clip0_891_515)">
<path d="M42.0969 24.8156C42.5892 24.8156 42.9881 24.4166 42.9881 23.9244C42.9881 23.4322 42.5892 23.0332 42.0969 23.0332H16.9952C16.503 23.0332 16.104 23.4322 16.104 23.9244V38.2884C16.104 38.7806 16.503 39.1796 16.9952 39.1796H26.6024V41.583C26.6024 41.9226 26.7955 42.2327 27.1002 42.3827C27.2249 42.4441 27.3595 42.4741 27.4935 42.4741C27.6868 42.4741 27.8786 42.4113 28.0376 42.2888L32.0723 39.1795H42.0969C42.5892 39.1795 42.9881 38.7805 42.9881 38.2883V28.6293C42.9881 28.1371 42.5892 27.7381 42.0969 27.7381C41.6046 27.7381 41.2057 28.1371 41.2057 28.6293V37.3971H31.7687C31.5719 37.3971 31.3806 37.4622 31.2247 37.5825L28.3848 39.771V38.2883C28.3848 37.7961 27.9859 37.3971 27.4936 37.3971H17.8863V24.8156H42.0969Z" fill="#77DFF8"/>
<path d="M19.8143 19.4417V5.07771C19.8143 4.58554 19.4153 4.18652 18.9231 4.18652H0.891187C0.399014 4.18652 0 4.58554 0 5.07771V19.4417C0 19.9339 0.399014 20.3329 0.891187 20.3329H4.5081C5.00027 20.3329 5.39928 19.9339 5.39928 19.4417C5.39928 18.9496 5.00027 18.5506 4.5081 18.5506H1.78237V5.9689H18.0319V18.5506H13.1807C12.6885 18.5506 12.2895 18.9496 12.2895 19.4417V20.9244L9.44943 18.7359C9.05945 18.4353 8.4999 18.5079 8.19951 18.8978C7.899 19.2876 7.97161 19.8472 8.36135 20.1477L12.6366 23.4423C12.7955 23.5648 12.9874 23.6277 13.1807 23.6277C13.3146 23.6277 13.4491 23.5975 13.5738 23.5362C13.8786 23.3863 14.0717 23.0761 14.0717 22.7365V20.333H18.923C19.4153 20.3329 19.8143 19.9339 19.8143 19.4417Z" fill="#77DFF8"/>
<path d="M42.1088 0.526367H28.9859C28.4936 0.526367 28.0947 0.925381 28.0947 1.41755C28.0947 1.90973 28.4936 2.30874 28.9859 2.30874H41.2175V13.7014H34.0944C33.8976 13.7014 33.7063 13.7666 33.5504 13.8867L30.7104 16.0753V14.5926C30.7104 14.1004 30.3115 13.7014 29.8192 13.7014H24.9681V1.41755C24.9681 0.925381 24.5692 0.526367 24.0769 0.526367C23.5846 0.526367 23.1857 0.925381 23.1857 1.41755V14.5926C23.1857 15.0848 23.5846 15.4838 24.0769 15.4838H28.928V17.8872C28.928 18.2268 29.1211 18.5369 29.4258 18.6869C29.5506 18.7482 29.6852 18.7783 29.8191 18.7783C30.0124 18.7783 30.2042 18.7155 30.3632 18.5931L34.398 15.4838H42.1088C42.6011 15.4838 43 15.0848 43 14.5926V1.41755C43 0.925381 42.6011 0.526367 42.1088 0.526367Z" fill="#77DFF8"/>
</g>
<defs>
<clipPath id="clip0_891_515">
<rect width="43" height="43" fill="white"/>
</clipPath>
</defs>
</svg>
