<svg width="559" height="690" viewBox="0 0 559 690" fill="none" xmlns="http://www.w3.org/2000/svg">
<path d="M279.81 491.1C246.61 491.1 215.61 500.3 189.11 516.4V525H370.41V516.4C344.01 500.3 313.01 491.1 279.81 491.1Z" fill="#C7A91D"/>
<path d="M394.41 525H165.11V668.3H394.41V525Z" fill="#5A4965"/>
<path d="M410.31 668.3H149.31V690H410.31V668.3Z" fill="#5A4965"/>
<path d="M297.91 350.3C292.31 352.4 286.21 353.6 279.81 353.6C273.41 353.6 267.31 352.4 261.71 350.3V350.2C261.71 339.6 256.61 328.5 246.41 320.8L246.21 320.7C210.61 296.8 181.91 263.4 163.61 224.1C131.71 156 113.91 80.1 113.91 0H445.51C445.51 80.1 427.71 156.1 395.81 224.1C377.61 263.3 348.81 296.7 313.21 320.7L313.01 320.8C303.01 328.6 297.91 339.6 297.91 350.3Z" fill="#C7A91D"/>
<path d="M295.21 351.2C295.21 361.2 299.61 369.6 306.61 375.8C309.01 378 310.51 381.2 310.51 384.8C310.51 391.5 305.01 397 298.31 397C298.21 397 298.11 397 297.91 397H261.41C261.31 397 261.21 397 261.01 397C254.31 397 248.81 391.5 248.81 384.8C248.81 381.2 250.31 378.1 252.71 375.8C259.71 369.7 264.11 361.3 264.11 351.2H295.21Z" fill="#C7A91D"/>
<path d="M310.71 501.5C300.91 504.4 290.51 505.9 279.81 505.9C269.11 505.9 258.71 504.3 248.91 501.5L249.01 501.2V481C256.71 462.9 260.91 442.9 260.91 422C260.91 413.4 260.21 405 258.81 396.7H300.81C299.41 404.9 298.71 413.4 298.71 422C298.71 442.9 302.91 462.9 310.61 481V501.2L310.71 501.5Z" fill="#C8AC26"/>
<path d="M162.71 316.6C154.31 316.6 146.11 313.6 139.71 308.1C134.51 303.7 133.91 295.9 138.41 290.7C142.81 285.5 150.61 284.9 155.81 289.4C157.21 290.6 159.51 292 162.71 292C168.61 292 173.41 287.2 173.41 281.3C173.41 280.5 173.31 279.6 173.11 278.8C171.41 272.9 168.21 267.5 163.91 263.2C162.71 262.3 161.81 261.3 161.31 260.7L53.1099 159.2C17.3099 125.6 -8.99006 72.9004 13.1099 31.1004C22.5099 13.3004 41.31 1.60039 61.41 0.900391C61.71 0.900391 62.01 0.900391 62.31 0.900391H63.31C63.61 0.900391 63.9099 0.900391 64.2099 0.900391C94.1099 1.90039 118.11 26.5004 118.11 56.6004C118.11 70.6004 112.91 84.0004 103.41 94.3004C98.81 99.3004 91.01 99.7004 85.91 95.0004C80.91 90.4004 80.51 82.6004 85.21 77.5004C90.51 71.8004 93.41 64.3004 93.41 56.5004C93.41 39.5004 79.71 25.7004 62.81 25.4004C51.21 25.6004 40.31 32.3004 34.91 42.5004C19.01 72.6004 41.91 114.7 70.01 141L178.51 242.8C178.81 243.1 179.11 243.4 179.31 243.6C179.61 243.8 179.91 244.1 180.11 244.3C188.21 251.9 194.01 261.5 196.91 272.2C196.91 272.3 197.01 272.4 197.01 272.5C197.71 275.3 198.11 278.2 198.11 281.1C198.01 300.7 182.21 316.6 162.71 316.6Z" fill="#C7A91D"/>
<path d="M361.61 281.2C361.61 278.3 362.01 275.4 362.71 272.6C362.71 272.5 362.81 272.4 362.81 272.3C365.71 261.7 371.61 252 379.61 244.4C379.91 244.1 380.11 243.9 380.41 243.7C380.61 243.5 380.91 243.2 381.21 242.9L489.71 141.1C517.71 114.8 540.71 72.7 524.81 42.6C519.41 32.4 508.51 25.7 496.91 25.5C480.01 25.8 466.31 39.6 466.31 56.6C466.31 64.4 469.21 71.9 474.51 77.6C479.11 82.6 478.81 90.4 473.81 95.1C468.81 99.7 461.01 99.4 456.31 94.4C446.81 84.1 441.61 70.7 441.61 56.7C441.61 26.6 465.61 1.9 495.51 1C495.81 1 496.11 1 496.41 1H497.41C497.71 1 498.01 1 498.31 1C518.41 1.7 537.21 13.4 546.61 31.2C568.71 73 542.41 125.6 506.61 159.3L398.41 260.6C397.81 261.2 397.01 262.2 395.81 263.1C391.41 267.4 388.21 272.8 386.61 278.7C386.41 279.5 386.31 280.3 386.31 281.2C386.31 287.1 391.11 291.9 397.01 291.9C400.31 291.9 402.61 290.5 403.91 289.3C409.11 284.9 416.91 285.5 421.31 290.6C425.71 295.8 425.11 303.6 420.01 308C413.61 313.5 405.41 316.5 397.01 316.5C377.41 316.6 361.61 300.7 361.61 281.2ZM398.01 261C398.11 260.9 398.11 260.9 398.01 261Z" fill="#C7A91D"/>
<path d="M184.41 15.0996H128.31C128.31 72.2996 139.51 126.9 159.81 176.8C156.71 161.6 155.11 145.8 155.11 129.7C155.11 88.0996 165.71 49.0996 184.41 15.0996Z" fill="#A79444"/>
<path d="M165.11 668.3H394.41V525C394.51 525 317.81 668.3 165.11 668.3Z" fill="#4A3D52"/>
<path d="M363.41 558.1H196.21V640H363.41V558.1Z" fill="#C7A91D"/>
<path d="M22.51 47.3996C32.51 28.4996 52.51 15.9996 73.81 15.2996C74.11 15.2996 74.41 15.2996 74.81 15.2996H75.81C76.11 15.2996 76.41 15.2996 76.71 15.2996C83.21 15.4996 89.41 16.7996 95.21 18.8996C86.71 10.9996 75.41 5.99961 63.01 5.59961C62.71 5.59961 62.51 5.59961 62.21 5.59961H61.31C61.01 5.59961 60.81 5.59961 60.51 5.59961C42.51 6.19961 25.71 16.6996 17.21 32.6996C8.11 49.8996 8.21002 69.0996 14.01 87.7996C13.21 73.8996 15.71 60.1996 22.51 47.3996Z" fill="#A79444"/>
<path d="M198.11 277.7C212.11 294.1 228.31 308.6 246.31 320.7L246.51 320.8C256.71 328.6 261.81 339.6 261.81 350.2V350.3C267.41 352.4 273.51 353.6 279.91 353.6C286.31 353.6 292.41 352.4 298.01 350.3V350.2C298.01 339.6 303.11 328.5 313.31 320.8L313.51 320.7C349.11 296.8 377.81 263.4 396.11 224.1C428.01 156 445.81 80.1 445.81 0C372.31 290.2 198.81 277.7 198.11 277.7Z" fill="#A48829"/>
<path d="M279.81 236C322.502 236 357.11 201.392 357.11 158.7C357.11 116.009 322.502 81.4004 279.81 81.4004C237.118 81.4004 202.51 116.009 202.51 158.7C202.51 201.392 237.118 236 279.81 236Z" fill="#FFF3C0"/>
<path d="M283.997 122.752L293.103 141.008C293.76 142.337 295.041 143.261 296.527 143.478L316.924 146.45C318.123 146.618 319.204 147.249 319.929 148.203C320.654 149.157 320.961 150.355 320.785 151.533C320.643 152.509 320.183 153.414 319.473 154.11L304.685 168.429C303.602 169.442 303.11 170.921 303.374 172.367L307.017 192.521C307.419 194.932 305.81 197.224 303.374 197.712C302.377 197.868 301.356 197.705 300.46 197.246L282.249 187.76C280.9 187.078 279.299 187.078 277.951 187.76L259.739 197.246C257.496 198.439 254.693 197.623 253.474 195.421C253.012 194.539 252.847 193.537 253.001 192.557L256.643 172.403C256.908 170.957 256.415 169.477 255.332 168.465L240.544 154.146C239.676 153.305 239.188 152.158 239.188 150.96C239.188 149.763 239.676 148.615 240.544 147.774C241.243 147.063 242.168 146.608 243.166 146.485L263.563 143.514C265.049 143.297 266.331 142.372 266.987 141.044L275.765 122.752C276.533 121.191 278.154 120.213 279.918 120.246H280.464C281.998 120.437 283.329 121.381 283.997 122.752Z" fill="#4B8897"/>
<path d="M280.027 187.223C279.229 187.218 278.479 187.48 277.769 187.838L259.615 197.301C257.438 198.399 254.673 197.517 253.474 195.421C253.01 194.553 252.844 193.561 253.001 192.593L256.643 172.474C256.888 171.019 256.399 169.538 255.332 168.501L240.507 154.182C238.72 152.421 238.72 149.571 240.507 147.81C241.207 147.119 242.113 146.667 243.094 146.521L263.563 143.514C265.141 143.285 266.268 142.413 266.987 141.044L275.88 122.542C276.557 121.037 278.836 119.997 280.063 120.246C280.027 121.463 280.027 186.4 280.027 187.223Z" fill="#4B8897"/>
<path d="M95.5635 0L279.268 294.238L462.973 0H559L329.833 345L559 690H462.973L279.268 405.195L95.5635 690H0L226.383 345L0 0H95.5635Z" fill="#FA0000"/>
</svg>
