<svg width="550" height="690" viewBox="0 0 550 690" fill="none" xmlns="http://www.w3.org/2000/svg">
<path d="M274.81 491.1C241.61 491.1 210.61 500.3 184.11 516.4V525H365.41V516.4C339.01 500.3 308.01 491.1 274.81 491.1Z" fill="#FED100"/>
<path d="M389.41 525H160.11V668.3H389.41V525Z" fill="#614E6C"/>
<path d="M405.31 668.3H144.31V690H405.31V668.3Z" fill="#614E6C"/>
<path d="M292.91 350.3C287.31 352.4 281.21 353.6 274.81 353.6C268.41 353.6 262.31 352.4 256.71 350.3V350.2C256.71 339.6 251.61 328.5 241.41 320.8L241.21 320.7C205.61 296.8 176.91 263.4 158.61 224.1C126.71 156 108.91 80.1 108.91 0H440.51C440.51 80.1 422.71 156.1 390.81 224.1C372.61 263.3 343.81 296.7 308.21 320.7L308.01 320.8C298.01 328.6 292.91 339.6 292.91 350.3Z" fill="#FED100"/>
<path d="M290.21 351.2C290.21 361.2 294.61 369.6 301.61 375.8C304.01 378 305.51 381.2 305.51 384.8C305.51 391.5 300.01 397 293.31 397C293.21 397 293.11 397 292.91 397H256.41C256.31 397 256.21 397 256.01 397C249.31 397 243.81 391.5 243.81 384.8C243.81 381.2 245.31 378.1 247.71 375.8C254.71 369.7 259.11 361.3 259.11 351.2H290.21Z" fill="#FED100"/>
<path d="M305.71 501.5C295.91 504.4 285.51 505.9 274.81 505.9C264.11 505.9 253.71 504.3 243.91 501.5L244.01 501.2V481C251.71 462.9 255.91 442.9 255.91 422C255.91 413.4 255.21 405 253.81 396.7H295.81C294.41 404.9 293.71 413.4 293.71 422C293.71 442.9 297.91 462.9 305.61 481V501.2L305.71 501.5Z" fill="#FFDB31"/>
<path d="M157.71 316.6C149.31 316.6 141.11 313.6 134.71 308.1C129.51 303.7 128.91 295.9 133.41 290.7C137.81 285.5 145.61 284.9 150.81 289.4C152.21 290.6 154.51 292 157.71 292C163.61 292 168.41 287.2 168.41 281.3C168.41 280.5 168.31 279.6 168.11 278.8C166.41 272.9 163.21 267.5 158.91 263.2C157.71 262.3 156.81 261.3 156.31 260.7L48.1099 159.2C12.3099 125.6 -13.9901 72.9004 8.10994 31.1004C17.5099 13.3004 36.31 1.60039 56.41 0.900391C56.71 0.900391 57.01 0.900391 57.31 0.900391H58.31C58.61 0.900391 58.9099 0.900391 59.2099 0.900391C89.1099 1.90039 113.11 26.5004 113.11 56.6004C113.11 70.6004 107.91 84.0004 98.41 94.3004C93.81 99.3004 86.01 99.7004 80.91 95.0004C75.91 90.4004 75.51 82.6004 80.21 77.5004C85.51 71.8004 88.41 64.3004 88.41 56.5004C88.41 39.5004 74.71 25.7004 57.81 25.4004C46.21 25.6004 35.31 32.3004 29.91 42.5004C14.01 72.6004 36.91 114.7 65.01 141L173.51 242.8C173.81 243.1 174.11 243.4 174.31 243.6C174.61 243.8 174.91 244.1 175.11 244.3C183.21 251.9 189.01 261.5 191.91 272.2C191.91 272.3 192.01 272.4 192.01 272.5C192.71 275.3 193.11 278.2 193.11 281.1C193.01 300.7 177.21 316.6 157.71 316.6Z" fill="#FED100"/>
<path d="M356.61 281.2C356.61 278.3 357.01 275.4 357.71 272.6C357.71 272.5 357.81 272.4 357.81 272.3C360.71 261.7 366.61 252 374.61 244.4C374.91 244.1 375.11 243.9 375.41 243.7C375.61 243.5 375.91 243.2 376.21 242.9L484.71 141.1C512.71 114.8 535.71 72.7 519.81 42.6C514.41 32.4 503.51 25.7 491.91 25.5C475.01 25.8 461.31 39.6 461.31 56.6C461.31 64.4 464.21 71.9 469.51 77.6C474.11 82.6 473.81 90.4 468.81 95.1C463.81 99.7 456.01 99.4 451.31 94.4C441.81 84.1 436.61 70.7 436.61 56.7C436.61 26.6 460.61 1.9 490.51 1C490.81 1 491.11 1 491.41 1H492.41C492.71 1 493.01 1 493.31 1C513.41 1.7 532.21 13.4 541.61 31.2C563.71 73 537.41 125.6 501.61 159.3L393.41 260.6C392.81 261.2 392.01 262.2 390.81 263.1C386.41 267.4 383.21 272.8 381.61 278.7C381.41 279.5 381.31 280.3 381.31 281.2C381.31 287.1 386.11 291.9 392.01 291.9C395.31 291.9 397.61 290.5 398.91 289.3C404.11 284.9 411.91 285.5 416.31 290.6C420.71 295.8 420.11 303.6 415.01 308C408.61 313.5 400.41 316.5 392.01 316.5C372.41 316.6 356.61 300.7 356.61 281.2ZM393.01 261C393.11 260.9 393.11 260.9 393.01 261Z" fill="#FED100"/>
<path d="M179.41 15.0996H123.31C123.31 72.2996 134.51 126.9 154.81 176.8C151.71 161.6 150.11 145.8 150.11 129.7C150.11 88.0996 160.71 49.0996 179.41 15.0996Z" fill="#FFDF5A"/>
<path d="M160.11 668.3H389.41V525C389.51 525 312.81 668.3 160.11 668.3Z" fill="#504158"/>
<path d="M358.41 558.1H191.21V640H358.41V558.1Z" fill="#FED100"/>
<path d="M17.51 47.3996C27.51 28.4996 47.51 15.9996 68.81 15.2996C69.11 15.2996 69.41 15.2996 69.81 15.2996H70.81C71.11 15.2996 71.41 15.2996 71.71 15.2996C78.21 15.4996 84.41 16.7996 90.21 18.8996C81.71 10.9996 70.41 5.99961 58.01 5.59961C57.71 5.59961 57.51 5.59961 57.21 5.59961H56.31C56.01 5.59961 55.81 5.59961 55.51 5.59961C37.51 6.19961 20.71 16.6996 12.21 32.6996C3.11 49.8996 3.21002 69.0996 9.01002 87.7996C8.21002 73.8996 10.71 60.1996 17.51 47.3996Z" fill="#FFDF5A"/>
<path d="M193.11 277.7C207.11 294.1 223.31 308.6 241.31 320.7L241.51 320.8C251.71 328.6 256.81 339.6 256.81 350.2V350.3C262.41 352.4 268.51 353.6 274.91 353.6C281.31 353.6 287.41 352.4 293.01 350.3V350.2C293.01 339.6 298.11 328.5 308.31 320.8L308.51 320.7C344.11 296.8 372.81 263.4 391.11 224.1C423.01 156 440.81 80.1 440.81 0C367.31 290.2 193.81 277.7 193.11 277.7Z" fill="#FCC200"/>
<path d="M274.81 236C317.502 236 352.11 201.392 352.11 158.7C352.11 116.009 317.502 81.4004 274.81 81.4004C232.118 81.4004 197.51 116.009 197.51 158.7C197.51 201.392 232.118 236 274.81 236Z" fill="#FFF3C0"/>
<path d="M278.997 122.752L288.103 141.008C288.76 142.337 290.041 143.261 291.527 143.478L311.924 146.45C313.123 146.618 314.204 147.249 314.929 148.203C315.654 149.157 315.961 150.355 315.785 151.533C315.643 152.509 315.183 153.414 314.473 154.11L299.685 168.429C298.602 169.442 298.11 170.921 298.374 172.367L302.017 192.521C302.419 194.932 300.81 197.224 298.374 197.712C297.377 197.868 296.356 197.705 295.46 197.246L277.249 187.76C275.9 187.078 274.299 187.078 272.951 187.76L254.739 197.246C252.496 198.439 249.693 197.623 248.474 195.421C248.012 194.539 247.847 193.537 248.001 192.557L251.643 172.403C251.908 170.957 251.415 169.477 250.332 168.465L235.544 154.146C234.676 153.305 234.188 152.158 234.188 150.96C234.188 149.763 234.676 148.615 235.544 147.774C236.243 147.063 237.168 146.608 238.166 146.485L258.563 143.514C260.049 143.297 261.331 142.372 261.987 141.044L270.765 122.752C271.533 121.191 273.154 120.213 274.918 120.246H275.464C276.998 120.437 278.329 121.381 278.997 122.752Z" fill="#77DFF8"/>
<path d="M275.027 187.223C274.229 187.218 273.479 187.48 272.769 187.838L254.615 197.301C252.438 198.399 249.673 197.517 248.474 195.421C248.01 194.553 247.844 193.561 248.001 192.593L251.643 172.474C251.888 171.019 251.399 169.538 250.332 168.501L235.507 154.182C233.72 152.421 233.72 149.571 235.507 147.81C236.207 147.119 237.113 146.667 238.094 146.521L258.563 143.514C260.141 143.285 261.268 142.413 261.987 141.044L270.88 122.542C271.557 121.037 273.836 119.997 275.063 120.246C275.027 121.463 275.027 186.4 275.027 187.223Z" fill="#77DFF8"/>
</svg>
